<?xml version="1.0" ?><!DOCTYPE svg  PUBLIC '-//W3C//DTD SVG 1.1//EN'  'http://www.w3.org/Graphics/SVG/1.1/DTD/svg11.dtd'><svg height="40" viewBox="-5 -5 40 40" width="40" xmlns="http://www.w3.org/2000/svg"><path d="M29.98 10.205l-.023-.107-.02-.063-.034-.094c-.01-.02-.02-.04-.028-.062-.014-.03-.028-.058-.045-.086-.01-.02-.023-.04-.036-.06-.018-.026-.035-.053-.055-.078l-.045-.056c-.02-.024-.042-.047-.064-.07-.016-.017-.032-.034-.05-.05l-.073-.062c-.02-.015-.038-.03-.06-.044l-.02-.017L15.715.215c-.433-.287-.997-.287-1.43 0L.575 9.356l-.022.018-.06.044c-.023.02-.048.04-.072.062l-.05.048c-.022.023-.044.046-.064.07-.015.02-.03.036-.044.056-.02.026-.037.052-.055.078l-.037.06c-.016.028-.03.057-.044.086l-.03.063-.032.095-.02.063c-.01.035-.016.07-.022.107-.003.02-.008.037-.01.056-.008.056-.012.113-.012.17v9.14c0 .058.004.113.01.17l.012.055c.006.036.013.072.022.108l.02.063c.01.03.02.063.033.095l.03.063c.013.03.027.058.043.087.01.02.024.04.037.06.018.026.035.052.055.078.014.02.03.037.044.055.02.024.042.048.064.07l.05.05.074.062.06.045.02.016 13.71 9.14c.218.142.467.214.716.214s.5-.072.715-.217l13.71-9.14c.01-.006.016-.012.022-.017l.06-.045c.024-.02.05-.04.072-.06l.05-.05.064-.07.044-.056c.02-.026.037-.052.055-.08.013-.02.025-.038.036-.058l.044-.087c.01-.022.02-.042.028-.063.013-.03.023-.063.033-.095.007-.02.015-.04.02-.063.01-.037.017-.073.023-.11.003-.018.008-.035.01-.055.008-.052.012-.108.012-.165v-9.14c0-.057-.004-.113-.012-.17-.002-.018-.007-.036-.01-.055zM15 18.05L10.44 15 15 11.95 19.56 15 15 18.05zm-1.29-8.34l-5.588 3.74L3.61 10.43l10.1-6.734V9.71zM5.804 15l-3.225 2.157v-4.314L5.803 15zm2.32 1.55l5.588 3.74V26.3l-10.1-6.734 4.512-3.017zm8.166 3.74l5.588-3.74 4.512 3.02-10.1 6.732V20.29zM24.195 15l3.226-2.157v4.314L24.196 15zm-2.318-1.55l-5.59-3.74V3.698L26.39 10.43l-4.512 3.02z"/></svg>