<?xml version="1.0" encoding="utf-8"?>
<!-- Generator: Adobe Illustrator 16.0.0, SVG Export Plug-In . SVG Version: 6.00 Build 0)  -->
<!DOCTYPE svg PUBLIC "-//W3C//DTD SVG 1.0//EN" "http://www.w3.org/TR/2001/REC-SVG-20010904/DTD/svg10.dtd">
<svg version="1.0" id="Layer_1" xmlns="http://www.w3.org/2000/svg" xmlns:xlink="http://www.w3.org/1999/xlink" x="0px" y="0px" viewBox="0 0 59 58" enable-background="new 0 0 59 58" xml:space="preserve" class="code">
<g class="code-1">
	<path class="bracket" fill="none" stroke="#231F20" stroke-miterlimit="10" d="M20.3,11.3c-4.1,0.4-6.2,1-5.9,4.2c0.4,3,4.5,2.5,6.4,2.1"/>
	<path fill="none" stroke="#231F20" stroke-miterlimit="10" d="M24.1,10.6c-1.3,1.7-4,1.4-2.4,5.7c1.3,3.6,6.6,0,5.9-3.3
		c-1.4-1.6-1.6-2.1-3.6-2.4"/>
	<path fill="none" stroke="#231F20" stroke-miterlimit="10" d="M34.2,11.6c-4.3-3.1-9.5,7.8,0.2,6.4c1.4-4.3,0-8.9,0.1-13.3
		c-0.3,6.2,0.5,11,0.7,14"/>
	<path fill="none" stroke="#231F20" stroke-miterlimit="10" d="M37.6,14.5c1.8,0,4,0.2,6.2-0.2c0.3-2.6-2.2-4.1-4.4-3.4
		c-2.7,0.7-2.8,4.6-1.6,6.4c1.3,1.9,3.6,1,5.8,0.8"/>
	<path fill="none" stroke="#231F20" stroke-miterlimit="10" d="M46.8,10.8c2.3,1.6,4.9,2.7,7.1,4.4c-1.1,1.4-3.1,1.5-4.5,2.5
		c-0.8,0.5-1.4,1.1-2.4,1.4"/>
	<path class="bracket" fill="none" stroke="#231F20" stroke-miterlimit="10" d="M12.1,11.8c-2,1.2-2.1,1.3-4.1,2.4c-0.7,0.4-3.9,1.2-3.2,1.7
		c2.5,2,4.5,1.8,7.2,2.9"/>
</g>
<g class="code-2">
	<path class="bracket" fill="none" stroke="#231F20" stroke-miterlimit="10" d="M21.1,28.5c-4.1,0.4-6.2,1-5.9,4.2c0.4,3,4.5,2.5,6.4,2.1"/>
	<path fill="none" stroke="#231F20" stroke-miterlimit="10" d="M24.8,27.7c-1.3,1.7-4,1.4-2.4,5.7c1.3,3.6,6.6,0,5.9-3.3
		c-1.4-1.6-1.6-2.1-3.6-2.4"/>
	<path fill="none" stroke="#231F20" stroke-miterlimit="10" d="M35,28.7c-4.3-3.1-9.5,7.8,0.2,6.4c1.4-4.3,0-8.9,0.1-13.3
		c-0.3,6.2,0.5,11,0.7,14"/>
	<path fill="none" stroke="#231F20" stroke-miterlimit="10" d="M38.3,31.6c1.8,0,4,0.2,6.2-0.2c0.3-2.6-2.2-4.1-4.4-3.4
		c-2.7,0.7-2.8,4.6-1.6,6.4c1.3,1.9,3.6,1,5.8,0.8"/>
	<path fill="none" stroke="#231F20" stroke-miterlimit="10" d="M13.1,24.3c-1,0.7-2.7,0.9-2.8,2.2c-0.1,1.3,0.4,1.4,1,2.1
		c1,1.3,0.2,1.9-0.9,3c0.2,0.7,1,0.4,1.3,1.3c0.1,0.5-0.3,1.4-0.4,1.9c-0.3,1.6,1.4,1.5,2.7,2.6"/>
	<path class="bracket" fill="none" stroke="#231F20" stroke-miterlimit="10" d="M47.5,23.6c2.2,0.5,3.5,1.7,2.9,3.3c-0.5,1.4,0.3,1.9,0.8,3.2
		c-1.6,0.4-1,2.5-0.8,3.5c0.4,1.9-0.9,1.7-2.3,2.6"/>
</g>
<g class="code-3">
	<path class="dot" fill="none" stroke="#231F20" stroke-miterlimit="10" d="M21.6,46c-4.1,0.4-6.2,1-5.9,4.2c0.4,3,4.5,2.5,6.4,2.1"/>
	<path fill="none" stroke="#231F20" stroke-miterlimit="10" d="M25.3,45.2c-1.3,1.7-4,1.4-2.4,5.7c1.3,3.6,6.6,0,5.9-3.3
		c-1.4-1.6-1.6-2.1-3.6-2.4"/>
	<path fill="none" stroke="#231F20" stroke-miterlimit="10" d="M35.5,46.2c-4.3-3.1-9.5,7.8,0.2,6.4c1.4-4.3,0-8.9,0.1-13.3
		c-0.3,6.2,0.5,11,0.7,14"/>
	<path fill="none" stroke="#231F20" stroke-miterlimit="10" d="M38.8,49.1c1.8,0,4,0.2,6.2-0.2c0.3-2.6-2.2-4.1-4.4-3.4
		c-2.7,0.7-2.8,4.6-1.6,6.4c1.3,1.9,3.6,1,5.8,0.8"/>
	<path fill="none" stroke="#231F20" stroke-miterlimit="10" d="M12.1,51.2c0.2,0.5-0.3,1.3,0.1,1.5c0.3,0.1,0.6-0.7,0.3-0.9
		c-0.5-0.4-0.7,0.9,0.1,0.8c0.1-0.2,0.2-0.7,0-0.8c-0.1-0.1-0.3,0-0.5,0c0,0.2,0,0.4,0,0.6"/>
</g>
</svg>
