<?xml version="1.0" encoding="utf-8"?>
<!-- Generator: Adobe Illustrator 16.0.4, SVG Export Plug-In . SVG Version: 6.00 Build 0)  -->
<!DOCTYPE svg PUBLIC "-//W3C//DTD SVG 1.1//EN" "http://www.w3.org/Graphics/SVG/1.1/DTD/svg11.dtd">
<svg version="1.1" xmlns="http://www.w3.org/2000/svg" xmlns:xlink="http://www.w3.org/1999/xlink" x="0px" y="0px"
	 width="1516.5px" height="135.8px" viewBox="0 0 1516.5 135.8" enable-background="new 0 0 1516.5 135.8" xml:space="preserve">
<g id="waves">
	<g id="back">
		<g>
			<path fill="#00A99D" d="M2425,30.4V78H-90V30.4c0,0,13.3,15.8,29,15.8c14.1,0,28.3-15.8,28.3-15.8s13.3,15.8,29,15.8
				c14.1,0,28.3-15.8,28.3-15.8s13.3,18.8,29,18.8c14.1,0,28.4-18.8,28.4-18.8s13.3,15.8,29,15.8c14.1,0,28.4-15.8,28.4-15.8
				s13.3,15.8,29,15.8c12.7,0,25.6-12.3,28-15.3c0.1-0.1,0.1-0.2,0.2-0.2c0.1,0.1,0.1,0.2,0.2,0.3c2.3,3,14.5,15.2,28.7,15.2
				c12.7,0,25.6-12.3,28-15.3c0.1-0.1,0.1-0.2,0.2-0.2c0.1,0.1,0.1,0.2,0.2,0.3c2.3,3,14.5,15.2,28.6,15.2
				c12.1,0,24.4-10.9,27.6-14.8c0.1-0.2,0.3-0.3,0.4-0.5c0.1,0.1,0.2,0.3,0.4,0.5c3.1,3.9,14.8,14.7,28.3,14.7
				c14.1,0,28.4-15.8,28.4-15.8s13.3,15.8,29,15.8c12.8,0,25.6-12.3,28-15.3c0.1-0.1,0.1-0.2,0.2-0.2c0.1,0.1,0.1,0.2,0.2,0.3
				c2.3,3,14.5,15.2,28.6,15.2c12.8,0,25.6-12.3,28-15.3c0.1-0.1,0.1-0.2,0.2-0.2c0.1,0.1,0.1,0.2,0.2,0.3
				c2.3,3,14.5,15.2,28.7,15.2c12.9,0,26-13.3,28.1-15.5c0.1-0.1,0.1-0.1,0.1-0.1c0,0,0.1,0.1,0.1,0.2c2,2.2,14.3,15.4,28.8,15.4
				c14.1,0,28.4-15.8,28.4-15.8s13.3,15.8,29,15.8c14.1,0,28.3-15.8,28.3-15.8s13.3,18.8,29.1,18.8c14.1,0,28.4-18.8,28.4-18.8
				s13.3,15.8,29,15.8c14.1,0,28.4-15.8,28.4-15.8s13.3,15.8,29,15.8c12.7,0,25.6-12.3,28-15.3c0.1-0.1,0.1-0.2,0.2-0.2
				c0,0.1,0.1,0.2,0.2,0.3c2.3,3,14.5,15.2,28.7,15.2c12.7,0,25.6-12.3,28-15.3c0.1-0.1,0.1-0.2,0.2-0.2c0,0.1,0.1,0.2,0.2,0.3
				c2.3,3,14.5,15.2,28.6,15.2c12.2,0,24.4-10.9,27.6-14.8c0.2-0.2,0.3-0.3,0.4-0.5c0.1,0.1,0.2,0.3,0.4,0.5
				c3.1,3.9,14.8,14.7,28.3,14.7c14.1,0,28.4-15.8,28.4-15.8s13.3,15.8,29,15.8c12.7,0,25.6-12.3,28-15.3c0.1-0.1,0.2-0.2,0.2-0.2
				c0.1,0.1,0.1,0.2,0.2,0.3c2.3,3,14.5,15.2,28.6,15.2c12.7,0,25.6-12.3,28-15.3c0.1-0.1,0.1-0.2,0.2-0.2c0,0.1,0.1,0.2,0.2,0.3
				c2.3,3,14.5,15.2,28.7,15.2c12,0,24.2-11.5,27.5-14.9c0.2-0.2,0.3-0.3,0.4-0.4c0.1,0.1,0.3,0.3,0.5,0.5
				c3.2,3.4,14.8,14.8,28.2,14.8c14.1,0,28.4-15.8,28.4-15.8s13.3,15.8,29,15.8c14.1,0,28.3-15.8,28.3-15.8s13.3,18.8,29.1,18.8
				c14.1,0,28.4-18.8,28.4-18.8s13.3,15.8,29,15.8c14.1,0,28.4-15.8,28.4-15.8s13.3,15.8,29,15.8c12.7,0,25.6-12.3,28-15.3
				c0.1-0.1,0.1-0.2,0.2-0.2c0.1,0.1,0.1,0.2,0.2,0.3c2.3,3,14.5,15.2,28.7,15.2c12.7,0,25.6-12.3,28-15.3c0.1-0.1,0.1-0.2,0.2-0.2
				c0,0.1,0.1,0.2,0.2,0.3c2.3,3,14.5,15.2,28.6,15.2c12.2,0,24.4-10.9,27.6-14.8c0.2-0.2,0.3-0.3,0.4-0.5c0.1,0.1,0.2,0.3,0.4,0.5
				c3.1,3.9,14.8,14.7,28.3,14.7c14.1,0,28.4-15.8,28.4-15.8s13.3,15.8,29,15.8c12.8,0,25.6-12.3,28-15.3c0.1-0.1,0.1-0.2,0.2-0.2
				c0.1,0.1,0.1,0.2,0.2,0.3c2.3,3,14.5,15.2,28.6,15.2c12.8,0,25.6-12.3,28-15.3c0.1-0.1,0.1-0.2,0.2-0.2c0.1,0.1,0.1,0.2,0.2,0.3
				c2.3,3,14.5,15.2,28.7,15.2c12.9,0,26-13.3,28.1-15.5c0.1-0.1,0.1-0.1,0.1-0.1c0,0,0.1,0.1,0.1,0.2c2,2.2,14.3,15.4,28.8,15.4
				c14.1,0,28.4-15.8,28.4-15.8s13.3,15.8,29,15.8c14.1,0,28.3-15.8,28.3-15.8s13.3,18.8,29.1,18.8c14.1,0,28.4-18.8,28.4-18.8
				s13.3,15.8,29,15.8c14.1,0,28.4-15.8,28.4-15.8s13.3,15.8,29,15.8c12.7,0,25.6-12.3,28-15.3c0.1-0.1,0.1-0.2,0.2-0.2
				c0,0.1,0.1,0.2,0.2,0.3c2.3,3,14.5,15.2,28.7,15.2c12.7,0,25.6-12.3,28-15.3c0.1-0.1,0.1-0.2,0.2-0.2c0,0.1,0.1,0.2,0.2,0.3
				c2.3,3,14.5,15.2,28.6,15.2c12.2,0,24.4-10.9,27.6-14.8c0.2-0.2,0.3-0.3,0.4-0.5c0.1,0.1,0.2,0.3,0.4,0.5
				c3.1,3.9,14.8,14.7,28.3,14.7c14.1,0,28.4-15.8,28.4-15.8s13.3,15.8,29,15.8c12.7,0,25.6-12.3,28-15.3c0.1-0.1,0.2-0.2,0.2-0.2
				c0.1,0.1,0.1,0.2,0.2,0.3c2.3,3,14.5,15.2,28.6,15.2c12.7,0,25.6-12.3,28-15.3c0.1-0.1,0.1-0.2,0.2-0.2c0,0.1,0.1,0.2,0.2,0.3
				c2.3,3,14.6,15.2,28.7,15.2C2410.6,46.2,2425,30.4,2425,30.4z"/>
		</g>
	</g>
	<g id="middle">
		<g>
			<path fill="#29ABE2" d="M1669,49.4V97H-45V49.4c0,0,18.1,15.8,39.6,15.8c19.2,0,38.6-15.8,38.6-15.8s18.1,15.8,39.6,15.8
				c19.2,0,38.6-15.8,38.6-15.8s18.1,18.8,39.6,18.8c19.2,0,38.6-18.8,38.6-18.8s18.1,15.8,39.6,15.8c19.2,0,38.6-15.8,38.6-15.8
				s18.1,15.8,39.6,15.8c17.4,0,34.9-12.3,38.1-15.3c0.1-0.1,0.2-0.2,0.2-0.2c0.1,0.1,0.2,0.2,0.3,0.3c3.1,3,19.7,15.2,39,15.2
				c17.4,0,34.9-12.3,38.1-15.3c0.1-0.1,0.2-0.2,0.2-0.2c0.1,0.1,0.2,0.2,0.3,0.3c3.1,3,19.7,15.2,39,15.2
				c16.6,0,33.3-10.9,37.6-14.8c0.2-0.2,0.4-0.3,0.5-0.5c0.2,0.1,0.3,0.3,0.6,0.5c4.2,3.9,20.1,14.7,38.5,14.7
				c19.2,0,38.6-15.8,38.6-15.8s18.1,15.8,39.6,15.8c17.4,0,34.9-12.3,38.1-15.3c0.1-0.1,0.2-0.2,0.3-0.2c0.1,0.1,0.2,0.2,0.3,0.3
				c3.1,3,19.7,15.2,39,15.2c17.4,0,34.9-12.3,38.1-15.3c0.1-0.1,0.2-0.2,0.3-0.2c0.1,0.1,0.2,0.2,0.3,0.3c3.1,3,19.7,15.2,39,15.2
				c17.7,0,35.5-13.3,38.3-15.5c0.1-0.1,0.1-0.1,0.2-0.1c0.1,0,0.1,0.1,0.2,0.2c2.7,2.2,19.5,15.4,39.2,15.4
				c19.2,0,38.6-15.8,38.6-15.8s18.1,15.8,39.6,15.8c19.2,0,38.6-15.8,38.6-15.8s18.1,18.8,39.6,18.8c19.2,0,38.6-18.8,38.6-18.8
				s18.1,15.8,39.6,15.8c19.2,0,38.6-15.8,38.6-15.8s18.1,15.8,39.6,15.8c17.4,0,34.9-12.3,38.1-15.3c0.1-0.1,0.2-0.2,0.2-0.2
				c0.1,0.1,0.2,0.2,0.3,0.3c3.1,3,19.7,15.2,39,15.2c17.3,0,34.9-12.3,38.1-15.3c0.1-0.1,0.2-0.2,0.2-0.2c0.1,0.1,0.2,0.2,0.3,0.3
				c3.1,3,19.7,15.2,39,15.2c16.6,0,33.3-10.9,37.6-14.8c0.2-0.2,0.4-0.3,0.5-0.5c0.2,0.1,0.3,0.3,0.6,0.5
				c4.2,3.9,20.1,14.7,38.5,14.7c19.2,0,38.6-15.8,38.6-15.8s18.1,15.8,39.6,15.8c17.4,0,34.9-12.3,38.1-15.3
				c0.1-0.1,0.2-0.2,0.3-0.2c0.1,0.1,0.2,0.2,0.3,0.3c3.1,3,19.7,15.2,39,15.2c17.4,0,34.9-12.3,38.1-15.3c0.1-0.1,0.2-0.2,0.3-0.2
				c0.1,0.1,0.2,0.2,0.3,0.3c3.1,3,19.8,15.2,39.1,15.2C1649.5,65.2,1669,49.4,1669,49.4z"/>
		</g>
	</g>
	<g id="front">
		<g>
			<path fill="#0071BC" d="M1579,58.4V136H-32V58.4c0,0,34,30.6,74.4,30.6c36.1,0,72.6-30.6,72.6-30.6s34,30.6,74.4,30.6
				c36.1,0,72.6-30.6,72.6-30.6s34,30.6,74.4,30.6c36.1,0,72.6-30.6,72.6-30.6s34,30.6,74.4,30.6c36.1,0,72.6-30.6,72.6-30.6
				s34,30.6,74.4,30.6c32.6,0,65.5-24.9,71.6-29.8c0.2-0.2,0.3-0.3,0.5-0.4c0.1,0.1,0.3,0.3,0.5,0.4c5.9,5,37.1,29.7,73.4,29.7
				c32.6,0,65.5-24.9,71.6-29.8c0.2-0.2,0.3-0.3,0.5-0.4c0.1,0.1,0.3,0.3,0.5,0.4c5.9,5,37.1,29.7,73.4,29.7
				c31.1,0,62.5-22.7,70.6-29c0.4-0.3,0.7-0.5,1-0.8c0.3,0.2,0.6,0.5,1,0.8c7.8,6.4,37.8,28.9,72.4,28.9c36.1,0,72.6-30.6,72.6-30.6
				s34,30.6,74.4,30.6c32.6,0,65.5-24.9,71.6-29.8c0.2-0.2,0.3-0.3,0.5-0.4c0.1,0.1,0.3,0.3,0.5,0.4c5.9,5,37.1,29.7,73.4,29.7
				c32.6,0,65.5-24.9,71.6-29.8c0.2-0.2,0.3-0.3,0.5-0.4c0.1,0.1,0.3,0.3,0.5,0.4c5.9,5,37.1,29.7,73.4,29.7
				C1542.5,88.9,1579,58.4,1579,58.4z"/>
		</g>
	</g>
</g>
<g id="Layer_2">
	<g>
		<g>
			<path fill="#0071BC" d="M3030,246.4V324H1512v-77.6c0,0,32,30.6,70,30.6c34.1,0,68.4-30.6,68.4-30.6s32.1,30.6,70.1,30.6
				c34.1,0,68.4-30.6,68.4-30.6s32.1,30.6,70.1,30.6c34.1,0,68.4-30.6,68.4-30.6s32.1,30.6,70.1,30.6c34.1,0,68.5-30.6,68.5-30.6
				s32.1,30.6,70.1,30.6c30.7,0,61.8-24.9,67.5-29.8c0.2-0.2,0.3-0.3,0.5-0.4c0.1,0.1,0.3,0.3,0.5,0.4c5.5,5,35,29.7,69.2,29.7
				c30.7,0,61.8-24.9,67.5-29.8c0.2-0.2,0.3-0.3,0.5-0.4c0.1,0.1,0.3,0.3,0.5,0.4c5.5,5,35,29.7,69.2,29.7c29.3,0,58.9-22.7,66.6-29
				c0.4-0.3,0.7-0.5,0.9-0.8c0.3,0.2,0.6,0.5,1,0.8c7.4,6.4,35.6,28.9,68.2,28.9c34.1,0,68.5-30.6,68.5-30.6s32.1,30.6,70.1,30.6
				c30.7,0,61.8-24.9,67.5-29.8c0.2-0.2,0.3-0.3,0.5-0.4c0.1,0.1,0.3,0.3,0.5,0.4c5.5,5,35,29.7,69.2,29.7
				c30.8,0,61.8-24.9,67.5-29.8c0.2-0.2,0.3-0.3,0.5-0.4c0.1,0.1,0.3,0.3,0.5,0.4c5.5,5,34.8,29.7,69,29.7
				C2995.7,276.9,3030,246.4,3030,246.4z"/>
		</g>
	</g>
</g>
</svg>
