<svg xmlns="http://www.w3.org/2000/svg" xmlns:xlink="http://www.w3.org/1999/xlink" version="1.1" x="0" y="0" width="1516.5" height="135.8" viewBox="0 0 1516.5 135.8" enable-background="new 0 0 1516.5 135.8" xml:space="preserve" class="waves">
    <g id="back">
      <path fill="#00A99D" d="M2425 30.4V78H-90V30.4c0 0 13.3 15.8 29 15.8 14.1 0 28.3-15.8 28.3-15.8s13.3 15.8 29 15.8c14.1 0 28.3-15.8 28.3-15.8s13.3 18.8 29 18.8c14.1 0 28.4-18.8 28.4-18.8s13.3 15.8 29 15.8c14.1 0 28.4-15.8 28.4-15.8s13.3 15.8 29 15.8c12.7 0 25.6-12.3 28-15.3 0.1-0.1 0.1-0.2 0.2-0.2 0.1 0.1 0.1 0.2 0.2 0.3 2.3 3 14.5 15.2 28.7 15.2 12.7 0 25.6-12.3 28-15.3 0.1-0.1 0.1-0.2 0.2-0.2 0.1 0.1 0.1 0.2 0.2 0.3 2.3 3 14.5 15.2 28.6 15.2 12.1 0 24.4-10.9 27.6-14.8 0.1-0.2 0.3-0.3 0.4-0.5 0.1 0.1 0.2 0.3 0.4 0.5 3.1 3.9 14.8 14.7 28.3 14.7 14.1 0 28.4-15.8 28.4-15.8s13.3 15.8 29 15.8c12.8 0 25.6-12.3 28-15.3 0.1-0.1 0.1-0.2 0.2-0.2 0.1 0.1 0.1 0.2 0.2 0.3 2.3 3 14.5 15.2 28.6 15.2 12.8 0 25.6-12.3 28-15.3 0.1-0.1 0.1-0.2 0.2-0.2 0.1 0.1 0.1 0.2 0.2 0.3 2.3 3 14.5 15.2 28.7 15.2 12.9 0 26-13.3 28.1-15.5 0.1-0.1 0.1-0.1 0.1-0.1 0 0 0.1 0.1 0.1 0.2 2 2.2 14.3 15.4 28.8 15.4 14.1 0 28.4-15.8 28.4-15.8s13.3 15.8 29 15.8c14.1 0 28.3-15.8 28.3-15.8s13.3 18.8 29.1 18.8c14.1 0 28.4-18.8 28.4-18.8s13.3 15.8 29 15.8c14.1 0 28.4-15.8 28.4-15.8s13.3 15.8 29 15.8c12.7 0 25.6-12.3 28-15.3 0.1-0.1 0.1-0.2 0.2-0.2 0 0.1 0.1 0.2 0.2 0.3 2.3 3 14.5 15.2 28.7 15.2 12.7 0 25.6-12.3 28-15.3 0.1-0.1 0.1-0.2 0.2-0.2 0 0.1 0.1 0.2 0.2 0.3 2.3 3 14.5 15.2 28.6 15.2 12.2 0 24.4-10.9 27.6-14.8 0.2-0.2 0.3-0.3 0.4-0.5 0.1 0.1 0.2 0.3 0.4 0.5 3.1 3.9 14.8 14.7 28.3 14.7 14.1 0 28.4-15.8 28.4-15.8s13.3 15.8 29 15.8c12.7 0 25.6-12.3 28-15.3 0.1-0.1 0.2-0.2 0.2-0.2 0.1 0.1 0.1 0.2 0.2 0.3 2.3 3 14.5 15.2 28.6 15.2 12.7 0 25.6-12.3 28-15.3 0.1-0.1 0.1-0.2 0.2-0.2 0 0.1 0.1 0.2 0.2 0.3 2.3 3 14.5 15.2 28.7 15.2 12 0 24.2-11.5 27.5-14.9 0.2-0.2 0.3-0.3 0.4-0.4 0.1 0.1 0.3 0.3 0.5 0.5 3.2 3.4 14.8 14.8 28.2 14.8 14.1 0 28.4-15.8 28.4-15.8s13.3 15.8 29 15.8c14.1 0 28.3-15.8 28.3-15.8s13.3 18.8 29.1 18.8c14.1 0 28.4-18.8 28.4-18.8s13.3 15.8 29 15.8c14.1 0 28.4-15.8 28.4-15.8s13.3 15.8 29 15.8c12.7 0 25.6-12.3 28-15.3 0.1-0.1 0.1-0.2 0.2-0.2 0.1 0.1 0.1 0.2 0.2 0.3 2.3 3 14.5 15.2 28.7 15.2 12.7 0 25.6-12.3 28-15.3 0.1-0.1 0.1-0.2 0.2-0.2 0 0.1 0.1 0.2 0.2 0.3 2.3 3 14.5 15.2 28.6 15.2 12.2 0 24.4-10.9 27.6-14.8 0.2-0.2 0.3-0.3 0.4-0.5 0.1 0.1 0.2 0.3 0.4 0.5 3.1 3.9 14.8 14.7 28.3 14.7 14.1 0 28.4-15.8 28.4-15.8s13.3 15.8 29 15.8c12.8 0 25.6-12.3 28-15.3 0.1-0.1 0.1-0.2 0.2-0.2 0.1 0.1 0.1 0.2 0.2 0.3 2.3 3 14.5 15.2 28.6 15.2 12.8 0 25.6-12.3 28-15.3 0.1-0.1 0.1-0.2 0.2-0.2 0.1 0.1 0.1 0.2 0.2 0.3 2.3 3 14.5 15.2 28.7 15.2 12.9 0 26-13.3 28.1-15.5 0.1-0.1 0.1-0.1 0.1-0.1 0 0 0.1 0.1 0.1 0.2 2 2.2 14.3 15.4 28.8 15.4 14.1 0 28.4-15.8 28.4-15.8s13.3 15.8 29 15.8c14.1 0 28.3-15.8 28.3-15.8s13.3 18.8 29.1 18.8c14.1 0 28.4-18.8 28.4-18.8s13.3 15.8 29 15.8c14.1 0 28.4-15.8 28.4-15.8s13.3 15.8 29 15.8c12.7 0 25.6-12.3 28-15.3 0.1-0.1 0.1-0.2 0.2-0.2 0 0.1 0.1 0.2 0.2 0.3 2.3 3 14.5 15.2 28.7 15.2 12.7 0 25.6-12.3 28-15.3 0.1-0.1 0.1-0.2 0.2-0.2 0 0.1 0.1 0.2 0.2 0.3 2.3 3 14.5 15.2 28.6 15.2 12.2 0 24.4-10.9 27.6-14.8 0.2-0.2 0.3-0.3 0.4-0.5 0.1 0.1 0.2 0.3 0.4 0.5 3.1 3.9 14.8 14.7 28.3 14.7 14.1 0 28.4-15.8 28.4-15.8s13.3 15.8 29 15.8c12.7 0 25.6-12.3 28-15.3 0.1-0.1 0.2-0.2 0.2-0.2 0.1 0.1 0.1 0.2 0.2 0.3 2.3 3 14.5 15.2 28.6 15.2 12.7 0 25.6-12.3 28-15.3 0.1-0.1 0.1-0.2 0.2-0.2 0 0.1 0.1 0.2 0.2 0.3 2.3 3 14.6 15.2 28.7 15.2C2410.6 46.2 2425 30.4 2425 30.4z"/>
    </g>
    <g id="middle">
      <path fill="#29ABE2" d="M1669 49.4V97H-45V49.4c0 0 18.1 15.8 39.6 15.8 19.2 0 38.6-15.8 38.6-15.8s18.1 15.8 39.6 15.8c19.2 0 38.6-15.8 38.6-15.8s18.1 18.8 39.6 18.8c19.2 0 38.6-18.8 38.6-18.8s18.1 15.8 39.6 15.8c19.2 0 38.6-15.8 38.6-15.8s18.1 15.8 39.6 15.8c17.4 0 34.9-12.3 38.1-15.3 0.1-0.1 0.2-0.2 0.2-0.2 0.1 0.1 0.2 0.2 0.3 0.3 3.1 3 19.7 15.2 39 15.2 17.4 0 34.9-12.3 38.1-15.3 0.1-0.1 0.2-0.2 0.2-0.2 0.1 0.1 0.2 0.2 0.3 0.3 3.1 3 19.7 15.2 39 15.2 16.6 0 33.3-10.9 37.6-14.8 0.2-0.2 0.4-0.3 0.5-0.5 0.2 0.1 0.3 0.3 0.6 0.5 4.2 3.9 20.1 14.7 38.5 14.7 19.2 0 38.6-15.8 38.6-15.8s18.1 15.8 39.6 15.8c17.4 0 34.9-12.3 38.1-15.3 0.1-0.1 0.2-0.2 0.3-0.2 0.1 0.1 0.2 0.2 0.3 0.3 3.1 3 19.7 15.2 39 15.2 17.4 0 34.9-12.3 38.1-15.3 0.1-0.1 0.2-0.2 0.3-0.2 0.1 0.1 0.2 0.2 0.3 0.3 3.1 3 19.7 15.2 39 15.2 17.7 0 35.5-13.3 38.3-15.5 0.1-0.1 0.1-0.1 0.2-0.1 0.1 0 0.1 0.1 0.2 0.2 2.7 2.2 19.5 15.4 39.2 15.4 19.2 0 38.6-15.8 38.6-15.8s18.1 15.8 39.6 15.8c19.2 0 38.6-15.8 38.6-15.8s18.1 18.8 39.6 18.8c19.2 0 38.6-18.8 38.6-18.8s18.1 15.8 39.6 15.8c19.2 0 38.6-15.8 38.6-15.8s18.1 15.8 39.6 15.8c17.4 0 34.9-12.3 38.1-15.3 0.1-0.1 0.2-0.2 0.2-0.2 0.1 0.1 0.2 0.2 0.3 0.3 3.1 3 19.7 15.2 39 15.2 17.3 0 34.9-12.3 38.1-15.3 0.1-0.1 0.2-0.2 0.2-0.2 0.1 0.1 0.2 0.2 0.3 0.3 3.1 3 19.7 15.2 39 15.2 16.6 0 33.3-10.9 37.6-14.8 0.2-0.2 0.4-0.3 0.5-0.5 0.2 0.1 0.3 0.3 0.6 0.5 4.2 3.9 20.1 14.7 38.5 14.7 19.2 0 38.6-15.8 38.6-15.8s18.1 15.8 39.6 15.8c17.4 0 34.9-12.3 38.1-15.3 0.1-0.1 0.2-0.2 0.3-0.2 0.1 0.1 0.2 0.2 0.3 0.3 3.1 3 19.7 15.2 39 15.2 17.4 0 34.9-12.3 38.1-15.3 0.1-0.1 0.2-0.2 0.3-0.2 0.1 0.1 0.2 0.2 0.3 0.3 3.1 3 19.8 15.2 39.1 15.2C1649.5 65.2 1669 49.4 1669 49.4z"/>
    </g>
    <g id="front">
      <path fill="#0071BC" d="M1579 58.4V136H-32V58.4c0 0 34 30.6 74.4 30.6 36.1 0 72.6-30.6 72.6-30.6s34 30.6 74.4 30.6c36.1 0 72.6-30.6 72.6-30.6s34 30.6 74.4 30.6c36.1 0 72.6-30.6 72.6-30.6s34 30.6 74.4 30.6c36.1 0 72.6-30.6 72.6-30.6s34 30.6 74.4 30.6c32.6 0 65.5-24.9 71.6-29.8 0.2-0.2 0.3-0.3 0.5-0.4 0.1 0.1 0.3 0.3 0.5 0.4 5.9 5 37.1 29.7 73.4 29.7 32.6 0 65.5-24.9 71.6-29.8 0.2-0.2 0.3-0.3 0.5-0.4 0.1 0.1 0.3 0.3 0.5 0.4 5.9 5 37.1 29.7 73.4 29.7 31.1 0 62.5-22.7 70.6-29 0.4-0.3 0.7-0.5 1-0.8 0.3 0.2 0.6 0.5 1 0.8 7.8 6.4 37.8 28.9 72.4 28.9 36.1 0 72.6-30.6 72.6-30.6s34 30.6 74.4 30.6c32.6 0 65.5-24.9 71.6-29.8 0.2-0.2 0.3-0.3 0.5-0.4 0.1 0.1 0.3 0.3 0.5 0.4 5.9 5 37.1 29.7 73.4 29.7 32.6 0 65.5-24.9 71.6-29.8 0.2-0.2 0.3-0.3 0.5-0.4 0.1 0.1 0.3 0.3 0.5 0.4 5.9 5 37.1 29.7 73.4 29.7C1542.5 88.9 1579 58.4 1579 58.4z"/>
    </g>
</svg>
