<?xml version="1.0" ?><!DOCTYPE svg  PUBLIC '-//W3C//DTD SVG 1.1//EN'  'http://www.w3.org/Graphics/SVG/1.1/DTD/svg11.dtd'><svg xmlns="http://www.w3.org/2000/svg" xmlns:xlink="http://www.w3.org/1999/xlink"><symbol viewBox="-5 -5 40 40" id="codepen"><title>Codepen</title><desc>Link to codepen</desc><path d="M29.98 10.205l-.023-.107-.02-.063-.034-.094c-.01-.02-.02-.04-.028-.062-.014-.03-.028-.058-.045-.086-.01-.02-.023-.04-.036-.06-.018-.026-.035-.053-.055-.078l-.045-.056c-.02-.024-.042-.047-.064-.07-.016-.017-.032-.034-.05-.05l-.073-.062c-.02-.015-.038-.03-.06-.044l-.02-.017L15.715.215c-.433-.287-.997-.287-1.43 0L.575 9.356l-.022.018-.06.044c-.023.02-.048.04-.072.062l-.05.048c-.022.023-.044.046-.064.07-.015.02-.03.036-.044.056-.02.026-.037.052-.055.078l-.037.06c-.016.028-.03.057-.044.086l-.03.063-.032.095-.02.063c-.01.035-.016.07-.022.107-.003.02-.008.037-.01.056-.008.056-.012.113-.012.17v9.14c0 .058.004.113.01.17l.012.055c.006.036.013.072.022.108l.02.063c.01.03.02.063.033.095l.03.063c.013.03.027.058.043.087.01.02.024.04.037.06.018.026.035.052.055.078.014.02.03.037.044.055.02.024.042.048.064.07l.05.05.074.062.06.045.02.016 13.71 9.14c.218.142.467.214.716.214s.5-.072.715-.217l13.71-9.14c.01-.006.016-.012.022-.017l.06-.045c.024-.02.05-.04.072-.06l.05-.05.064-.07.044-.056c.02-.026.037-.052.055-.08.013-.02.025-.038.036-.058l.044-.087c.01-.022.02-.042.028-.063.013-.03.023-.063.033-.095.007-.02.015-.04.02-.063.01-.037.017-.073.023-.11.003-.018.008-.035.01-.055.008-.052.012-.108.012-.165v-9.14c0-.057-.004-.113-.012-.17-.002-.018-.007-.036-.01-.055zM15 18.05L10.44 15 15 11.95 19.56 15 15 18.05zm-1.29-8.34l-5.588 3.74L3.61 10.43l10.1-6.734V9.71zM5.804 15l-3.225 2.157v-4.314L5.803 15zm2.32 1.55l5.588 3.74V26.3l-10.1-6.734 4.512-3.017zm8.166 3.74l5.588-3.74 4.512 3.02-10.1 6.732V20.29zM24.195 15l3.226-2.157v4.314L24.196 15zm-2.318-1.55l-5.59-3.74V3.698L26.39 10.43l-4.512 3.02z"/></symbol><symbol viewBox="-5 -5 42 42" id="email"><title>Email me</title><desc>Email me at info@metricslice.com</desc><path d="M0 4v24h32V4H0zm16 12.684L3.536 6h24.93L16 16.683zm0 2.632l3.9-3.342 8.77 10.023H3.327l8.77-10.023 3.898 3.342H16zm14 5.166l-8.582-9.81L30 7.315v17.166zm-19.418-9.81L2 24.482V7.318l8.582 7.354z"/></symbol><symbol viewBox="-5 -5 42 42" id="github"><title>GitHub</title><desc>Link to my GitHub repository</desc><path clip-rule="evenodd" d="M16.003 0C7.17 0 .008 7.162.008 15.997c0 7.067 4.582 13.063 10.94 15.18.8.145 1.052-.33 1.052-.753 0-.38.008-1.442 0-2.777-4.45.967-5.37-2.107-5.37-2.107-.728-1.848-1.776-2.34-1.776-2.34-1.452-.992.11-.973.11-.973 1.604.113 2.45 1.65 2.45 1.65 1.427 2.442 3.743 1.736 4.654 1.328.146-1.034.56-1.74 1.017-2.14C9.533 22.663 5.8 21.29 5.8 15.16c0-1.747.622-3.174 1.645-4.292-.165-.404-.715-2.03.157-4.234 0 0 1.343-.43 4.398 1.64 1.276-.354 2.645-.53 4.005-.537 1.36.006 2.727.183 4.005.538 3.055-2.07 4.396-1.64 4.396-1.64.872 2.202.323 3.83.16 4.233 1.022 1.118 1.643 2.545 1.643 4.292 0 6.146-3.74 7.498-7.305 7.893C19.48 23.548 20 24.508 20 26v4.428c0 .428.258.9 1.07.746C27.422 29.054 32 23.062 32 15.997 32 7.162 24.838 0 16.003 0z" fill="#181616" fill-rule="evenodd"/></symbol><symbol viewBox="-5 -5 28 28" id="phone"><title>Call me</title><desc>Call me at 404-694-1204</desc><g fill="none" fill-rule="evenodd"><g fill="#000" transform="translate(-85 -126)"><g transform="translate(85 126)"><path d="M3.6 7.8c1.4 2.8 3.8 5.1 6.6 6.6l2.2-2.2c.3-.3.7-.4 1-.2 1.1.4 2.3.6 3.6.6.6 0 1 .4 1 1V17c0 .6-.4 1-1 1C7.6 18 0 10.4 0 1c0-.6.4-1 1-1h3.5c.6 0 1 .4 1 1 0 1.2.2 2.4.6 3.6.1.3 0 .7-.2 1L3.6 7.8z"/></g></g></g></symbol><symbol viewBox="-5 -5 66.69 66.69" id="twitter"><title>Follow me on Twitter</title><desc>Follow me on Twitter @thebeckyhamm</desc><path d="M52.837 15.065c-1.81.805-3.76 1.348-5.805 1.59 2.088-1.25 3.69-3.23 4.444-5.59-1.953 1.158-4.115 2-6.418 2.453-1.843-1.964-4.47-3.192-7.377-3.192-5.58 0-10.105 4.525-10.105 10.107 0 .79.09 1.562.262 2.303-8.4-.422-15.848-4.445-20.833-10.56-.87 1.492-1.368 3.228-1.368 5.082 0 3.506 1.784 6.6 4.496 8.412-1.656-.053-3.215-.508-4.578-1.265v.128c0 4.896 3.483 8.98 8.107 9.91-.847.23-1.74.354-2.662.354-.652 0-1.285-.063-1.902-.182 1.287 4.015 5.02 6.938 9.44 7.02-3.458 2.71-7.815 4.326-12.55 4.326-.816 0-1.62-.047-2.412-.14 4.474 2.868 9.786 4.54 15.493 4.54 18.59 0 28.756-15.4 28.756-28.756 0-.438-.01-.875-.028-1.31 1.974-1.42 3.688-3.202 5.042-5.23z"/></symbol></svg>